<svg width="129" height="48" viewBox="0 0 129 48" fill="none" xmlns="http://www.w3.org/2000/svg">
<g clip-path="url(#clip0_829_610)">
<path d="M67.5923 13.7372C67.5923 15.1697 66.4304 16.3236 64.9881 16.3236C63.5457 16.3236 62.3839 15.1697 62.3839 13.7372C62.3839 12.3048 63.5057 11.1509 64.9881 11.1509C66.4704 11.1907 67.5923 12.3446 67.5923 13.7372ZM56.8549 18.9497C56.8549 19.1884 56.8549 19.5863 56.8549 19.5863C56.8549 19.5863 55.6129 17.9947 52.9687 17.9947C48.6017 17.9947 45.1962 21.2973 45.1962 25.8731C45.1962 30.4092 48.5616 33.7515 52.9687 33.7515C55.653 33.7515 56.8549 32.1201 56.8549 32.1201V32.7965C56.8549 33.1149 57.0953 33.3536 57.4159 33.3536H60.6611V18.3926C60.6611 18.3926 57.6963 18.3926 57.4159 18.3926C57.0953 18.3926 56.8549 18.6712 56.8549 18.9497ZM56.8549 28.539C56.254 29.4144 55.052 30.1704 53.6097 30.1704C51.0456 30.1704 49.0824 28.5788 49.0824 25.8731C49.0824 23.1674 51.0456 21.5758 53.6097 21.5758C55.012 21.5758 56.294 22.3716 56.8549 23.2072V28.539ZM63.065 18.3926H66.9112V33.3536H63.065V18.3926ZM120.518 17.9947C117.873 17.9947 116.631 19.5863 116.631 19.5863V11.1907H112.785V33.3536C112.785 33.3536 115.75 33.3536 116.03 33.3536C116.351 33.3536 116.591 33.0751 116.591 32.7965V32.1201C116.591 32.1201 117.833 33.7515 120.477 33.7515C124.845 33.7515 128.25 30.4092 128.25 25.8731C128.25 21.3371 124.845 17.9947 120.518 17.9947ZM119.877 30.1306C118.394 30.1306 117.232 29.3746 116.631 28.4993V23.1674C117.232 22.3716 118.514 21.536 119.877 21.536C122.441 21.536 124.404 23.1276 124.404 25.8333C124.404 28.539 122.441 30.1306 119.877 30.1306ZM110.782 24.4805V33.3934H106.936V24.9182C106.936 22.4512 106.134 21.4565 103.971 21.4565C102.809 21.4565 101.607 22.0533 100.846 22.9287V33.3536H96.9996V18.3926H100.045C100.365 18.3926 100.605 18.6712 100.605 18.9497V19.5863C101.727 18.4324 103.21 17.9947 104.692 17.9947C106.375 17.9947 107.777 18.4722 108.899 19.4272C110.261 20.5413 110.782 21.9737 110.782 24.4805ZM87.6646 17.9947C85.0203 17.9947 83.7783 19.5863 83.7783 19.5863V11.1907H79.9321V33.3536C79.9321 33.3536 82.8969 33.3536 83.1774 33.3536C83.4979 33.3536 83.7383 33.0751 83.7383 32.7965V32.1201C83.7383 32.1201 84.9803 33.7515 87.6245 33.7515C91.9916 33.7515 95.3971 30.4092 95.3971 25.8731C95.4371 21.3371 92.0316 17.9947 87.6646 17.9947ZM87.0236 30.1306C85.5412 30.1306 84.3793 29.3746 83.7783 28.4993V23.1674C84.3793 22.3716 85.6614 21.536 87.0236 21.536C89.5877 21.536 91.5509 23.1276 91.5509 25.8333C91.5509 28.539 89.5877 30.1306 87.0236 30.1306ZM76.6068 17.9947C77.7687 17.9947 78.3696 18.1937 78.3696 18.1937V21.735C78.3696 21.735 75.1645 20.6607 73.1612 22.9287V33.3934H69.315V18.3926C69.315 18.3926 72.2798 18.3926 72.5603 18.3926C72.8808 18.3926 73.1212 18.6712 73.1212 18.9497V19.5863C73.8423 18.7508 75.4048 17.9947 76.6068 17.9947ZM36.6624 32.0008C36.4621 31.5233 36.2618 31.006 36.0614 30.5683C35.7409 29.8521 35.4204 29.1757 35.14 28.539L35.0999 28.4993C32.3354 22.5308 29.3707 16.4827 26.2456 10.5143L26.1254 10.2755C25.8049 9.67868 25.4844 9.04204 25.1639 8.40541C24.7632 7.68919 24.3626 6.93318 23.7216 6.21697C22.4395 4.62538 20.5965 3.75 18.6334 3.75C16.6301 3.75 14.8272 4.62538 13.5051 6.13739C12.9041 6.8536 12.4634 7.60961 12.0628 8.32583C11.7423 8.96246 11.4217 9.5991 11.1012 10.1959L10.981 10.4347C7.89606 16.4032 4.89122 22.4512 2.12676 28.4197L2.0867 28.4993C1.80624 29.1359 1.48573 29.8123 1.16521 30.5285C0.964888 30.9662 0.764565 31.4437 0.564243 31.961C0.0434033 33.4332 -0.116855 34.8258 0.0834678 36.2583C0.524178 39.2425 2.52741 41.7493 5.29186 42.8634C6.33354 43.3011 7.41528 43.5 8.53709 43.5C8.85761 43.5 9.25825 43.4602 9.57877 43.4204C10.9009 43.2613 12.2631 42.8236 13.5852 42.0676C15.2279 41.1524 16.7904 39.8393 18.5532 37.9294C20.3161 39.8393 21.9187 41.1524 23.5212 42.0676C24.8434 42.8236 26.2056 43.2613 27.5277 43.4204C27.8482 43.4602 28.2489 43.5 28.5694 43.5C29.6912 43.5 30.813 43.3011 31.8146 42.8634C34.6191 41.7493 36.5823 39.2027 37.023 36.2583C37.3435 34.8656 37.1833 33.473 36.6624 32.0008ZM18.5933 34.0698C16.4298 31.3641 15.0275 28.8176 14.5468 26.6689C14.3465 25.7538 14.3064 24.958 14.4266 24.2417C14.5067 23.6051 14.7471 23.048 15.0676 22.5706C15.8288 21.4962 17.1109 20.8198 18.5933 20.8198C20.0757 20.8198 21.3978 21.4565 22.119 22.5706C22.4395 23.048 22.6799 23.6051 22.76 24.2417C22.8802 24.958 22.8401 25.7935 22.6398 26.6689C22.159 28.7778 20.7568 31.3243 18.5933 34.0698ZM34.5791 35.9399C34.2986 38.009 32.8963 39.7995 30.9332 40.5953C29.9716 40.9932 28.93 41.1126 27.8883 40.9932C26.8867 40.8739 25.885 40.5556 24.8434 39.9587C23.401 39.1629 21.9587 37.9294 20.276 36.0991C22.9203 32.8761 24.5229 29.9317 25.1238 27.3056C25.4043 26.0721 25.4443 24.958 25.3241 23.9234C25.1639 22.9287 24.8033 22.0135 24.2424 21.2177C23.0004 19.4272 20.917 18.3926 18.5933 18.3926C16.2696 18.3926 14.1862 19.467 12.9442 21.2177C12.3833 22.0135 12.0227 22.9287 11.8624 23.9234C11.7022 24.958 11.7423 26.1119 12.0628 27.3056C12.6637 29.9317 14.3064 32.9159 16.9106 36.1389C15.2679 37.9692 13.7855 39.2027 12.3432 39.9985C11.3015 40.5953 10.2999 40.9137 9.29832 41.033C8.21657 41.1524 7.1749 40.9932 6.25341 40.6351C4.29025 39.8393 2.88799 38.0488 2.60754 35.9797C2.48734 34.985 2.56747 33.9902 2.96812 32.8761C3.08831 32.4782 3.28863 32.0803 3.48896 31.6029C3.76941 30.9662 4.08992 30.2898 4.41044 29.6134L4.45051 29.5338C7.21496 23.6051 10.1797 17.5571 13.2647 11.6682L13.3849 11.4294C13.7054 10.8326 14.0259 10.1959 14.3465 9.5991C14.667 8.96246 15.0275 8.36562 15.4683 7.84835C16.3096 6.89339 17.4314 6.37613 18.6734 6.37613C19.9154 6.37613 21.0372 6.89339 21.8786 7.84835C22.3193 8.36562 22.6799 8.96246 23.0004 9.5991C23.3209 10.1959 23.6414 10.8326 23.9619 11.4294L24.0821 11.6682C27.127 17.5968 30.0918 23.6449 32.8563 29.5736V29.6134C33.1768 30.25 33.4572 30.9662 33.7778 31.6029C33.9781 32.0803 34.1784 32.4782 34.2986 32.8761C34.6191 33.9107 34.7393 34.9054 34.5791 35.9399Z" fill="#A9B0B6"/>
</g>
<defs>
<clipPath id="clip0_829_610">
<rect width="128.25" height="48" fill="white"/>
</clipPath>
</defs>
</svg>
