<svg width="111" height="48" viewBox="0 0 111 48" fill="none" xmlns="http://www.w3.org/2000/svg">
<g clip-path="url(#clip0_829_607)">
<path fill-rule="evenodd" clip-rule="evenodd" d="M69.3788 37.9939C62.9728 42.5625 53.6877 45 45.6934 45C34.4842 45 24.393 40.9886 16.7586 34.3168C16.1588 33.7922 16.6962 33.0772 17.416 33.4857C25.655 38.1239 35.8422 40.9143 46.3652 40.9143C53.4622 40.9143 61.2693 39.4936 68.4479 36.5454C69.5323 36.0997 70.4392 37.2325 69.3788 37.9939Z" fill="#A9B0B6"/>
<path fill-rule="evenodd" clip-rule="evenodd" d="M72.042 35.0458C71.2263 34.0336 66.6293 34.5676 64.566 34.8043C63.9374 34.8786 63.8414 34.3493 64.4076 33.9686C68.0689 31.4754 74.0766 32.1951 74.7771 33.0308C75.4777 33.8711 74.5948 39.6979 71.1543 42.479C70.6264 42.9061 70.1226 42.6786 70.3577 42.1122C71.1303 40.2458 72.8625 36.0626 72.042 35.0458Z" fill="#A9B0B6"/>
<path fill-rule="evenodd" clip-rule="evenodd" d="M64.0439 15.6053V13.1159C64.0439 12.7392 64.3299 12.4864 64.6731 12.4864H75.8123C76.1698 12.4864 76.4558 12.7439 76.4558 13.1159V15.2476C76.451 15.6053 76.1507 16.0726 75.6169 16.8118L69.8447 25.0572C71.9896 25.0048 74.2537 25.3243 76.1984 26.4211C76.6369 26.6691 76.7561 27.0315 76.7894 27.3892V30.0455C76.7894 30.4079 76.3891 30.8323 75.9696 30.613C72.5425 28.8151 67.9906 28.6196 64.2012 30.632C63.8151 30.8419 63.41 30.4222 63.41 30.0598V27.537C63.41 27.1317 63.4148 26.4402 63.8199 25.825L70.5072 16.23H64.6874C64.3299 16.23 64.0439 15.9773 64.0439 15.6053Z" fill="#A9B0B6"/>
<path fill-rule="evenodd" clip-rule="evenodd" d="M23.4098 31.1376H20.0209C19.6967 31.1137 19.4393 30.8705 19.4155 30.5605V13.1589C19.4155 12.8107 19.7063 12.5342 20.0685 12.5342H23.2287C23.5576 12.5484 23.8197 12.8012 23.8436 13.116V15.3907H23.9055C24.7301 13.1923 26.2792 12.1669 28.3669 12.1669C30.488 12.1669 31.8131 13.1923 32.7664 15.3907C33.5862 13.1923 35.4499 12.1669 37.447 12.1669C38.8674 12.1669 40.4213 12.7535 41.3698 14.0697C42.4423 15.5338 42.223 17.6607 42.223 19.5253L42.2183 30.5081C42.2183 30.8562 41.9275 31.1376 41.5653 31.1376H38.1811C37.8427 31.1137 37.571 30.8419 37.571 30.5081V21.2851C37.571 20.5506 37.6377 18.7194 37.4756 18.0231C37.223 16.8548 36.4651 16.5257 35.4833 16.5257C34.6634 16.5257 33.8055 17.0741 33.4575 17.9516C33.1096 18.8291 33.1429 20.2979 33.1429 21.2851V30.5081C33.1429 30.8562 32.8522 31.1376 32.4899 31.1376H29.1057C28.7625 31.1137 28.4956 30.8419 28.4956 30.5081L28.4909 21.2851C28.4909 19.3441 28.8102 16.4876 26.4031 16.4876C23.9675 16.4876 24.0628 19.2726 24.0628 21.2851V30.5081C24.0628 30.8562 23.7721 31.1376 23.4098 31.1376Z" fill="#A9B0B6"/>
<path fill-rule="evenodd" clip-rule="evenodd" d="M86.0458 12.1669C91.0744 12.1669 93.7961 16.4876 93.7961 21.9813C93.7961 27.2891 90.7884 31.5 86.0458 31.5C81.1077 31.5 78.4194 27.1794 78.4194 21.7953C78.4194 16.3779 81.1411 12.1669 86.0458 12.1669ZM86.0744 15.7198C83.5768 15.7198 83.4195 19.1247 83.4195 21.2469C83.4195 23.3738 83.3861 27.9138 86.0458 27.9138C88.6721 27.9138 88.796 24.2513 88.796 22.0195C88.796 20.5506 88.7341 18.7957 88.2908 17.4032C87.9095 16.1919 87.1516 15.7198 86.0744 15.7198Z" fill="#A9B0B6"/>
<path fill-rule="evenodd" clip-rule="evenodd" d="M100.317 31.1376H96.942C96.6036 31.1137 96.3319 30.8419 96.3319 30.5081L96.3272 13.1016C96.3558 12.7821 96.637 12.5342 96.9802 12.5342H100.121C100.417 12.5484 100.66 12.7488 100.727 13.0206V15.6816H100.789C101.737 13.3019 103.067 12.1669 105.407 12.1669C106.928 12.1669 108.41 12.7154 109.363 14.2176C110.25 15.6101 110.25 17.9516 110.25 19.635V30.5891C110.212 30.8944 109.931 31.1376 109.597 31.1376H106.199C105.889 31.1137 105.631 30.8848 105.598 30.5891V21.1372C105.598 19.2344 105.817 16.4494 103.477 16.4494C102.652 16.4494 101.894 17.0026 101.518 17.8419C101.041 18.9054 100.979 19.9641 100.979 21.1372V30.5081C100.974 30.8562 100.679 31.1376 100.317 31.1376Z" fill="#A9B0B6"/>
<path fill-rule="evenodd" clip-rule="evenodd" d="M55.164 22.8254C55.164 24.1464 55.1974 25.248 54.5301 26.4211C53.9915 27.3749 53.1335 27.9615 52.185 27.9615C50.8838 27.9615 50.1211 26.9695 50.1211 25.5055C50.1211 22.6155 52.7093 22.091 55.164 22.091V22.8254ZM58.5816 31.0899C58.3576 31.2901 58.0334 31.3045 57.7808 31.1709C56.6559 30.2362 56.451 29.8023 55.8361 28.9105C53.9772 30.8085 52.6569 31.376 50.2498 31.376C47.3947 31.376 45.1783 29.6163 45.1783 26.0921C45.1783 23.3404 46.6654 21.4662 48.7913 20.5506C50.6311 19.7399 53.2002 19.5968 55.164 19.3727V18.934C55.164 18.128 55.226 17.1742 54.7494 16.478C54.3394 15.8533 53.5482 15.5957 52.8475 15.5957C51.5558 15.5957 50.4071 16.2586 50.1259 17.6321C50.0687 17.9373 49.8447 18.2377 49.5348 18.252L46.2507 17.8991C45.9743 17.8371 45.6645 17.613 45.7455 17.1886C46.4986 13.2018 50.1021 12 53.3242 12C54.9734 12 57.1278 12.4387 58.4291 13.6882C60.0783 15.2285 59.921 17.2839 59.921 19.5205V24.8045C59.921 26.3925 60.5787 27.0888 61.1984 27.9472C61.4129 28.2524 61.4605 28.6196 61.1841 28.8485C60.4929 29.4255 59.2632 30.4985 58.5863 31.0994L58.5816 31.0899Z" fill="#A9B0B6"/>
<path fill-rule="evenodd" clip-rule="evenodd" d="M10.7357 22.8254C10.7357 24.1463 10.7691 25.248 10.1018 26.4211C9.56318 27.3749 8.70999 27.9615 7.75669 27.9615C6.45545 27.9615 5.69759 26.9695 5.69759 25.5055C5.69759 22.6155 8.28577 22.091 10.7357 22.091V22.8254ZM14.1533 31.0898C13.9293 31.2901 13.6051 31.3044 13.3525 31.1709C12.2276 30.2362 12.0274 29.8022 11.4078 28.9105C9.54888 30.8085 8.23334 31.376 5.82151 31.376C2.97117 31.376 0.75 29.6163 0.75 26.0921C0.75 23.3404 2.2419 21.4662 4.36298 20.5506C6.20283 19.7399 8.77195 19.5968 10.7357 19.3727V18.934C10.7357 18.128 10.7977 17.1742 10.3258 16.478C9.91113 15.8533 9.1199 15.5957 8.424 15.5957C7.13229 15.5957 5.97881 16.2586 5.69759 17.6321C5.64039 17.9373 5.41636 18.2377 5.11131 18.252L1.82245 17.8991C1.546 17.8371 1.24094 17.613 1.31721 17.1885C2.07508 13.2018 5.67375 12 8.89588 12C10.5451 12 12.6995 12.4387 14.0008 13.6882C15.65 15.2285 15.4927 17.2839 15.4927 19.5205V24.8045C15.4927 26.3925 16.1504 27.0887 16.7701 27.9471C16.9893 28.2524 17.037 28.6196 16.7605 28.8485C16.0694 29.4255 14.8397 30.4985 14.1628 31.0994L14.1533 31.0898Z" fill="#A9B0B6"/>
</g>
<defs>
<clipPath id="clip0_829_607">
<rect width="110.25" height="48" fill="white" transform="translate(0.75)"/>
</clipPath>
</defs>
</svg>
