<svg width="166" height="48" viewBox="0 0 166 48" fill="none" xmlns="http://www.w3.org/2000/svg">
<g clip-path="url(#clip0_829_604)">
<path d="M65.0923 14.4672C65.0923 13.8129 65.3549 13.1853 65.8225 12.7226C66.2901 12.2599 66.9243 12 67.5856 12C68.2469 12 68.881 12.2599 69.3486 12.7226C69.8162 13.1853 70.0788 13.8129 70.0788 14.4672C70.0548 15.1056 69.7815 15.7099 69.3166 16.1532C68.8516 16.5964 68.2312 16.844 67.5856 16.844C66.94 16.844 66.3195 16.5964 65.8545 16.1532C65.3896 15.7099 65.1163 15.1056 65.0923 14.4672Z" fill="#A9B0B6"/>
<path d="M24.1739 29.8511C22.0279 29.8511 20.5347 28.164 20.5347 25.7517C20.5347 23.3412 22.0278 21.6558 24.1756 21.6558C26.3337 21.6558 27.8426 23.3412 27.8426 25.7517C27.8426 28.2018 26.3668 29.8511 24.1739 29.8511ZM24.1739 18.0529C19.6318 18.0529 16.3346 21.2915 16.3346 25.7517C16.3346 30.2137 19.6336 33.4506 24.1739 33.4506C28.735 33.4506 32.0443 30.2137 32.0443 25.7535C32.0443 21.2915 28.735 18.0529 24.1756 18.0529H24.1739ZM60.2637 26.1383C60.1056 25.8358 59.9058 25.5565 59.6699 25.3085L59.531 25.1659L59.6769 25.0284C59.8853 24.8102 60.0988 24.5525 60.3036 24.2535L64.3144 18.357H59.446L56.4335 22.9701C56.2634 23.2175 55.9197 23.3412 55.404 23.3412H54.7181V14.6201C54.7181 12.8762 53.6191 12.6391 52.4333 12.6391H50.4017L50.4069 33.2238H54.7198V27.0489H55.1244C55.6158 27.0489 55.9491 27.1056 56.1036 27.3702L58.4823 31.8132C59.1473 33.0193 59.8088 33.2238 61.0554 33.2238H64.3595L61.8976 29.1965L60.2655 26.1383H60.2637ZM81.1996 18.0185C79.005 18.0185 77.6055 18.9841 76.8207 19.8002L76.5603 20.0614L76.4665 19.7057C76.2373 18.8312 75.4595 18.3518 74.291 18.3518H72.3585L72.3707 33.2186H76.654V26.3668C76.654 25.6968 76.7408 25.116 76.9214 24.5851C77.3971 22.9787 78.7271 21.9805 80.3887 21.9805C81.7256 21.9805 82.2483 22.6798 82.2483 24.4838V30.9593C82.2483 32.4987 82.9688 33.2186 84.5262 33.2186H86.5646L86.5577 23.7622C86.5577 20.0064 84.7051 18.0202 81.1996 18.0202V18.0185ZM67.6376 18.357H65.6079L65.6218 29.8529V33.2238H67.7869L67.8633 33.2272L68.8739 33.2238H69.8775V33.2186H69.8843L69.893 20.6163C69.893 19.0958 69.1586 18.3587 67.6394 18.3587L67.6376 18.357ZM40.9964 29.8511C38.8504 29.8511 37.3555 28.164 37.3555 25.7517C37.3555 23.3412 38.8505 21.6558 40.9982 21.6558C43.1512 21.6558 44.6652 23.3412 44.6652 25.7517C44.6652 28.2018 43.1894 29.8511 40.9982 29.8511H40.9964ZM40.9964 18.0529C36.4509 18.0529 33.152 21.2915 33.152 25.7517C33.152 30.2137 36.451 33.4506 40.9982 33.4506C45.5525 33.4506 48.8686 30.2137 48.8686 25.7535C48.8686 21.2915 45.5525 18.0529 40.9982 18.0529" fill="#A9B0B6"/>
<path d="M95.5879 29.1965C93.2457 29.1965 92.4123 27.176 92.4123 25.2809C92.4123 24.4459 92.6258 21.7261 95.3639 21.7261C96.7234 21.7261 98.5343 22.111 98.5343 25.4201C98.5343 28.5419 96.9318 29.1965 95.5879 29.1965ZM100.758 18.3174C99.9459 18.3174 99.3209 18.6387 99.0066 19.2246L98.8886 19.4514L98.6906 19.2795C97.9996 18.6885 96.7599 17.9858 94.7476 17.9858C90.742 17.9858 88.0456 20.9633 88.0456 25.3909C88.0456 29.8167 90.8358 32.9093 94.8275 32.9093C96.1904 32.9093 97.2686 32.5932 98.1228 31.954L98.4527 31.7083V32.1207C98.4527 34.1068 97.1557 35.203 94.8031 35.203C93.6589 35.203 92.6189 34.9281 91.9209 34.6772C91.0146 34.4058 90.4798 34.6308 90.1135 35.5329L89.7732 36.3644L89.2922 37.5808L89.5891 37.7372C91.0962 38.5275 93.0565 39 94.8275 39C98.4736 39 102.734 37.153 102.734 31.954L102.75 18.3174H100.758Z" fill="#A9B0B6"/>
<path d="M8.22459 29.681L4.73819 29.6775V25.5541C4.73819 24.671 5.0837 24.214 5.84592 24.1074H8.22459C9.92092 24.1074 11.0182 25.1658 11.0199 26.8787C11.0182 28.6381 9.9487 29.6793 8.22459 29.6793V29.681ZM4.73819 17.4687C4.73819 16.5185 5.14449 16.0667 6.03519 16.0083H7.82009C9.34974 16.0083 10.2665 16.9137 10.2665 18.4308C10.2665 19.5854 9.63793 20.9341 7.87562 20.9341H4.73819V17.4687ZM12.6764 22.6711L12.0461 22.3206L12.5965 21.855C13.2372 21.3104 14.3085 20.0853 14.3085 17.9721C14.3085 14.7352 11.7735 12.6459 7.84786 12.6459H2.8578C2.29632 12.6662 1.76426 12.8994 1.37185 13.2973C0.979434 13.6953 0.756762 14.2273 0.75 14.7833V33.1498H7.93634C12.2996 33.1498 15.1158 30.7995 15.1158 27.1588C15.1158 25.1984 14.2061 23.5233 12.6764 22.6711Z" fill="#A9B0B6"/>
<path d="M104.25 31.8271C104.25 30.4356 105.372 29.3112 106.754 29.3112C107.422 29.3112 108.062 29.5761 108.534 30.0476C109.005 30.5191 109.271 31.1585 109.271 31.8253C109.271 32.4921 109.005 33.1316 108.534 33.6031C108.062 34.0746 107.422 34.3395 106.754 34.3395C105.374 34.3395 104.25 33.2133 104.25 31.8253" fill="#A9B0B6"/>
<path d="M132.804 30.7392C130.644 30.7392 129.138 29.0247 129.138 26.5735C129.138 24.1239 130.644 22.4112 132.804 22.4112C134.974 22.4112 136.497 24.1239 136.497 26.5735C136.497 29.0632 135.011 30.7392 132.804 30.7392ZM132.804 18.75C128.229 18.75 124.911 22.0411 124.911 26.5735C124.911 31.1076 128.229 34.3969 132.804 34.3969C137.389 34.3969 140.725 31.1076 140.725 26.5752C140.725 22.0411 137.388 18.75 132.804 18.75Z" fill="#A9B0B6"/>
<path d="M159.981 18.7658C159.091 18.769 158.213 18.972 157.412 19.3597C156.611 19.7474 155.908 20.31 155.354 21.0058L155.043 21.4003L154.798 20.9586C153.998 19.5043 152.624 18.7658 150.714 18.7658C148.71 18.7658 147.366 19.8831 146.742 20.5466L146.333 20.9883L146.176 20.4069C145.949 19.5689 145.203 19.1097 144.074 19.1097H142.262L142.244 34.1595H146.359V27.5163C146.359 26.9332 146.433 26.3588 146.578 25.7564C146.971 24.1502 148.051 22.4235 149.867 22.5963C150.985 22.7046 151.534 23.5688 151.534 25.2379V34.1595H155.679V27.5163C155.679 26.7883 155.747 26.2435 155.911 25.6988C156.243 24.1659 157.372 22.5946 159.123 22.5946C160.392 22.5946 160.86 23.3104 160.86 25.2379V31.9597C160.86 33.4786 161.538 34.1595 163.06 34.1595H164.996L165 24.5517C165 20.7125 163.308 18.7658 159.981 18.7658ZM122.525 28.934C122.513 28.9497 120.743 30.8144 118.41 30.8144C116.285 30.8144 114.139 29.5119 114.139 26.6049C114.139 24.0943 115.803 22.3397 118.186 22.3397C118.959 22.3397 119.839 22.6155 119.978 23.0817L119.997 23.1602C120.085 23.4812 120.276 23.7641 120.542 23.9652C120.807 24.1663 121.131 24.2742 121.465 24.2724L123.719 24.2759V22.3065C123.719 19.7085 120.411 18.7658 118.186 18.7658C113.426 18.7658 109.973 22.076 109.973 26.6364C109.973 31.1932 113.388 34.5 118.099 34.5C122.185 34.5 124.407 31.8165 124.428 31.7903L124.547 31.6437L122.761 28.6843L122.525 28.934Z" fill="#A9B0B6"/>
</g>
<defs>
<clipPath id="clip0_829_604">
<rect width="165" height="48" fill="white" transform="translate(0.75)"/>
</clipPath>
</defs>
</svg>
