<svg width="165" height="48" viewBox="0 0 165 48" fill="none" xmlns="http://www.w3.org/2000/svg">
<g clip-path="url(#clip0_829_601)">
<path d="M40.25 32.5165L41.2641 32.3059C42.1589 32.0652 42.3975 31.9448 42.3975 30.1397V15.9692C42.3975 14.164 42.1291 14.0136 41.2641 13.803L40.25 13.5924V12.75H56.4159L56.7142 18.7371H55.7896C55.0439 17.0824 54.5667 16.2099 54.1193 15.548C53.1649 14.164 52.5385 14.0437 50.4805 14.0437C48.9593 14.0437 48.2137 14.2242 47.7663 14.3446V22.0165H48.5716C50.6594 22.0165 51.1367 21.7758 51.4946 21.1139C51.9121 20.3617 52.1508 19.7901 52.4192 18.8274H53.314V26.5895H52.4192C52.1508 25.6569 51.9121 25.0552 51.4946 24.1827C51.1367 23.4305 50.7489 23.2801 48.5716 23.2801H47.7663V29.0566C47.7663 31.7342 47.8557 32.0351 50.7489 32.0351C53.135 32.0351 53.6123 31.7342 54.5965 30.26C55.1334 29.4477 55.7001 28.1841 56.4756 26.2887H57.43L57.0125 33.3589H40.2798L40.25 32.5165ZM59.9355 21.2342C59.2495 19.5494 58.9214 19.1282 58.1757 18.8875L57.609 18.707V17.9248H66.4675V18.707L65.6621 18.9176C65.0358 19.0981 64.7375 19.399 64.7375 20.1211C64.7375 20.5423 64.8867 21.0537 65.1253 21.7156L67.6009 28.5752H67.75L70.1361 21.7156C70.4046 20.9936 70.5239 20.4821 70.5239 20.0609C70.5239 19.399 70.2256 19.0681 69.5992 18.9176L68.7939 18.707V17.9248H74.2522V18.707L73.6855 18.8875C72.91 19.1583 72.5819 19.6096 71.8661 21.5652L67.3026 33.3589H64.7972L59.9355 21.2342ZM73.5662 25.5666C73.5662 20.3918 77.3541 17.5337 81.2614 17.5337C85.3178 17.5337 87.853 19.5795 87.9425 24.9649H78.1893C78.2787 29.8388 80.0982 31.1626 83.1405 31.1626C84.9599 31.1626 86.3617 30.6211 87.4653 30.0494V31.0423C86.4214 32.1855 84.1844 33.75 81.2316 33.75C76.1014 33.6898 73.5662 30.6211 73.5662 25.5666ZM78.1893 23.8216L83.2299 23.5509C83.2299 19.9706 82.7527 18.6468 80.993 18.6468C79.5016 18.6468 78.3086 20.091 78.1893 23.8216ZM95.6974 19.8202C96.5325 18.9176 98.2326 17.4434 100.201 17.4434C101.454 17.4434 102.498 18.4663 102.498 19.76C102.498 21.0537 101.484 22.0766 100.201 22.0766C99.2766 22.0766 98.4414 21.505 98.1133 20.6927C97.9344 20.3617 97.5466 20.2715 97.2782 20.2715C96.7413 20.2715 96.115 20.6626 95.7272 21.0236V30.6511C95.7272 32.0351 95.8465 32.1855 96.7413 32.336L97.7256 32.5466V33.3589H89.2251V32.5466L90.0005 32.336C90.9848 32.0652 91.1041 31.9148 91.1041 30.6511V21.4148C91.1041 20.1511 90.955 20.0609 90.1199 19.4893L89.1356 18.8274V18.2256L95.3395 17.5036L95.6676 17.7443L95.6079 19.7901L95.6974 19.8202ZM103.393 32.5466L104.168 32.336C105.152 32.0652 105.272 31.9148 105.272 30.6511V21.4148C105.272 20.1511 105.123 20.0609 104.287 19.4893L103.303 18.8274V18.2256L109.507 17.5036L109.835 17.7142L109.775 19.6096H109.895C111.446 18.4964 113.384 17.5036 115.532 17.5036C118.037 17.5036 119.38 18.7973 119.38 21.4749V30.6211C119.38 31.9148 119.499 32.0652 120.453 32.3059L121.229 32.5165V33.3288H113.027V32.5165L113.742 32.336C114.637 32.0953 114.727 32.005 114.727 30.6211V22.6483C114.727 20.8431 114.071 20.2715 112.698 20.2715C111.655 20.2715 110.611 20.5122 109.954 20.6626V30.6511C109.954 32.0652 110.044 32.1254 110.939 32.366L111.655 32.5466V33.3589H103.452V32.5466H103.393ZM121.796 25.6569C121.796 19.9706 125.792 17.5337 129.759 17.5337C134.024 17.5337 137.753 20.1211 137.753 25.5064C137.753 31.1927 133.816 33.6898 129.759 33.6898C125.494 33.6898 121.796 31.1024 121.796 25.6569ZM132.802 25.8073C132.802 19.8202 131.668 18.6769 129.64 18.6769C127.791 18.6769 126.687 20.0308 126.687 25.1454C126.687 31.2228 127.671 32.5466 129.819 32.5466C131.579 32.5466 132.802 31.4936 132.802 25.8073ZM140.288 29.5981V19.6698H138.439V18.9477C140.735 18.0451 142.495 16.3302 143.33 13.9534H145.001V17.9248H148.908L148.52 19.6698H145.001V29.2973C145.001 30.7715 145.448 31.3732 146.909 31.3732C147.625 31.3732 148.49 31.2228 149.027 31.1024V31.9448C148.311 32.6067 146.85 33.6898 144.374 33.6898C141.72 33.6898 140.288 32.5165 140.288 29.5981ZM149.624 25.5666C149.624 20.3918 153.412 17.5337 157.319 17.5337C161.375 17.5337 163.911 19.5795 164 24.9649H154.277C154.366 29.8388 156.185 31.1626 159.228 31.1626C161.047 31.1626 162.449 30.6211 163.553 30.0494V31.0423C162.509 32.1855 160.272 33.75 157.319 33.75C152.159 33.6898 149.624 30.6211 149.624 25.5666ZM154.247 23.8216L159.287 23.5509C159.287 19.9706 158.81 18.6468 157.05 18.6468C155.559 18.6468 154.366 20.091 154.247 23.8216Z" fill="#A9B0B6"/>
<path d="M10.135 15.5888C10.135 15.9469 10.1052 16.5439 9.74724 16.9319C9.35946 17.2901 8.76286 17.3199 8.4049 17.3199H4.58668C3.48298 17.3199 2.82673 17.3199 2.37928 17.3796C2.14064 17.4095 1.84234 17.5289 1.69319 17.5886C1.63353 17.6184 1.63353 17.5886 1.66336 17.5587L10.3737 8.69391C10.4035 8.66406 10.4333 8.66406 10.4035 8.72376C10.3438 8.873 10.2245 9.17148 10.1947 9.41026C10.135 9.85798 10.135 10.5146 10.135 11.619V15.5888ZM18.2487 42.3921C17.2345 41.7354 16.6976 40.8699 16.4888 40.3326C16.28 39.8252 16.1607 39.2581 16.1607 38.691C16.1607 36.2136 18.1891 34.184 20.6948 34.184C21.4405 34.184 22.0371 34.7809 22.0371 35.5271C22.0371 36.0345 21.7687 36.4524 21.351 36.6912C21.2019 36.7807 20.9931 36.8404 20.8439 36.8703C20.6948 36.9001 20.128 36.9598 19.8596 37.1986C19.5613 37.4374 19.3226 37.8254 19.3226 38.2433C19.3226 38.691 19.5016 39.1088 19.7999 39.4073C20.3368 39.9446 21.0527 40.2431 21.8283 40.2431C23.8567 40.2431 25.4974 38.6014 25.4974 36.5718C25.4974 34.7511 24.2744 33.1393 22.6636 32.4229C22.4249 32.3035 22.0371 32.214 21.6792 32.1245C21.2317 32.0349 20.8141 31.9752 20.7843 31.9752C19.5314 31.826 16.3993 30.841 16.1905 28.0651C16.1905 28.0651 15.2658 32.2438 13.4163 33.3781C13.2373 33.4676 12.9987 33.5571 12.7302 33.6168C12.4618 33.6765 12.1635 33.7064 12.074 33.7064C9.06116 33.8855 5.86937 32.9303 3.66196 30.6619C3.66196 30.6619 2.17047 29.4381 1.39489 26.0056C1.21592 25.1699 0.857958 23.6775 0.649149 22.2747C0.55966 21.7673 0.52983 21.3792 0.5 21.0211C0.5 19.5585 1.39489 18.5735 2.52843 18.4243C2.55826 18.4243 2.64775 18.4243 2.70741 18.4243C3.39349 18.4243 8.61371 18.4243 8.61371 18.4243C9.65775 18.4243 10.2543 18.1557 10.6421 17.7975C11.1492 17.3199 11.2686 16.6334 11.2686 15.8275C11.2686 15.8275 11.2686 10.3952 11.2686 9.70874C11.2686 9.67889 11.2686 9.5595 11.2686 9.52965C11.4177 8.42528 12.4021 7.5 13.8638 7.5C13.8638 7.5 14.3112 7.5 14.5797 7.5C14.878 7.5 15.2359 7.52985 15.5641 7.5597C15.8027 7.58954 16.0115 7.64924 16.3695 7.73878C18.1891 8.1865 18.5769 10.0371 18.5769 10.0371C18.5769 10.0371 22.0073 10.634 23.7374 10.9325C25.3781 11.231 29.4349 11.4996 30.2105 15.5888C32.0301 25.3191 30.9264 34.7511 30.8369 34.7511C29.5542 43.9442 21.9178 43.4965 21.9178 43.4965C20.2772 43.4965 19.0541 42.9592 18.2487 42.3921ZM25.1096 22.8418C24.1252 22.7522 23.29 23.1403 22.9917 23.8865C22.932 24.0357 22.8724 24.2148 22.9022 24.3043C22.932 24.3939 22.9917 24.4237 23.0513 24.4536C23.4093 24.6326 24.0059 24.7222 24.871 24.8117C25.736 24.9013 26.3326 24.961 26.7204 24.9013C26.7801 24.9013 26.8397 24.8714 26.8994 24.7819C26.959 24.6923 26.9292 24.5133 26.9292 24.364C26.8099 23.5283 26.094 22.9612 25.1096 22.8418Z" fill="#A9B0B6"/>
</g>
<defs>
<clipPath id="clip0_829_601">
<rect width="164.25" height="48" fill="white" transform="translate(0.5)"/>
</clipPath>
</defs>
</svg>
