<svg width="114" height="48" viewBox="0 0 114 48" fill="none" xmlns="http://www.w3.org/2000/svg">
<g clip-path="url(#clip0_829_613)">
<path d="M49 25.875C49 31.2726 44.7907 35.25 39.625 35.25C34.4593 35.25 30.25 31.2726 30.25 25.875C30.25 20.4394 34.4593 16.5 39.625 16.5C44.7907 16.5 49 20.4394 49 25.875ZM44.8961 25.875C44.8961 22.502 42.4565 20.1942 39.625 20.1942C36.7935 20.1942 34.3539 22.502 34.3539 25.875C34.3539 29.2142 36.7935 31.5558 39.625 31.5558C42.4565 31.5558 44.8961 29.2099 44.8961 25.875Z" fill="#A9B0B6"/>
<path d="M68.5 25.875C68.5 31.2726 64.2907 35.25 59.125 35.25C53.9593 35.25 49.75 31.2726 49.75 25.875C49.75 20.4436 53.9593 16.5 59.125 16.5C64.2907 16.5 68.5 20.4394 68.5 25.875ZM64.3961 25.875C64.3961 22.502 61.9565 20.1942 59.125 20.1942C56.2935 20.1942 53.8539 22.502 53.8539 25.875C53.8539 29.2142 56.2935 31.5558 59.125 31.5558C61.9565 31.5558 64.3961 29.2099 64.3961 25.875Z" fill="#A9B0B6"/>
<path d="M88 17.0633V33.8022C88 40.6878 83.9106 43.5 79.0762 43.5C74.5254 43.5 71.7865 40.4776 70.7535 38.0058L74.3434 36.5219C74.9826 38.0395 76.5489 39.8302 79.072 39.8302C82.1665 39.8302 84.0842 37.9344 84.0842 34.3655V33.0245H83.9403C83.0174 34.1553 81.2394 35.1432 78.9958 35.1432C74.301 35.1432 70 31.0824 70 25.8573C70 20.5943 74.301 16.5 78.9958 16.5C81.2352 16.5 83.0132 17.4879 83.9403 18.585H84.0842V17.0675H88V17.0633ZM84.3763 25.8573C84.3763 22.5743 82.1707 20.174 79.3641 20.174C76.5193 20.174 74.1359 22.5743 74.1359 25.8573C74.1359 29.1067 76.5193 31.4734 79.3641 31.4734C82.1707 31.4734 84.3763 29.1067 84.3763 25.8573Z" fill="#A9B0B6"/>
<path d="M94 7.5V34.5H90.25V7.5H94Z" fill="#A9B0B6"/>
<path d="M110.135 28.9648L113.323 31.0951C112.294 32.6209 109.815 35.25 105.531 35.25C100.218 35.25 96.25 31.1331 96.25 25.875C96.25 20.2999 100.252 16.5 105.071 16.5C109.924 16.5 112.298 20.3717 113.074 22.464L113.5 23.5291L100.998 28.7196C101.955 30.6005 103.443 31.56 105.531 31.56C107.622 31.56 109.073 30.5287 110.135 28.9648ZM100.323 25.5918L108.68 22.1132C108.221 20.9423 106.838 20.1266 105.21 20.1266C103.123 20.1266 100.218 21.9737 100.323 25.5918Z" fill="#A9B0B6"/>
<path d="M14.6936 22.9395V19.0459H27.8057C27.9338 19.7245 28 20.5272 28 21.3961C28 24.3173 27.2019 27.9294 24.63 30.503C22.1283 33.1098 18.9319 34.5 14.6977 34.5C6.84946 34.5 0.25 28.1032 0.25 20.25C0.25 12.3968 6.84946 6 14.6977 6C19.0394 6 22.1324 7.7047 24.4563 9.92661L21.7107 12.674C20.0443 11.11 17.7865 9.89351 14.6936 9.89351C8.96245 9.89351 4.48011 14.5152 4.48011 20.25C4.48011 25.9848 8.96245 30.6065 14.6936 30.6065C18.4109 30.6065 20.5281 29.1128 21.8843 27.7557C22.9842 26.6551 23.7079 25.0828 23.9932 22.9353L14.6936 22.9395Z" fill="#A9B0B6"/>
</g>
<defs>
<clipPath id="clip0_829_613">
<rect width="113.25" height="48" fill="white" transform="translate(0.25)"/>
</clipPath>
</defs>
</svg>
