<svg width="40" height="40" viewBox="0 0 40 40" fill="none" xmlns="http://www.w3.org/2000/svg">
<path d="M0 8C0 3.58172 3.58172 0 8 0H32C36.4183 0 40 3.58172 40 8V32C40 36.4183 36.4183 40 32 40H8C3.58172 40 0 36.4183 0 32V8Z" fill="#CEFF1A"/>
<path d="M19.5913 28.5228C19.5304 28.7662 19.39 28.9823 19.1923 29.1367C18.9945 29.2911 18.7509 29.375 18.5 29.375C18.4077 29.3748 18.3158 29.3634 18.2263 29.3412L15.2263 28.5912C15.1013 28.5608 14.9827 28.5088 14.8756 28.4375L12.6256 26.9375C12.377 26.7719 12.2043 26.5143 12.1456 26.2214C12.0869 25.9285 12.1469 25.6243 12.3125 25.3756C12.4781 25.127 12.7357 24.9543 13.0286 24.8956C13.3215 24.8369 13.6257 24.8969 13.8744 25.0625L15.9622 26.4547L18.7747 27.1578C19.0639 27.2306 19.3124 27.4153 19.4656 27.6713C19.6187 27.9272 19.6639 28.2335 19.5913 28.5228ZM31.9062 19.5078C31.8292 19.7414 31.7067 19.9574 31.5458 20.1434C31.3849 20.3294 31.1888 20.4817 30.9688 20.5916L28.8247 21.6641L23.8016 26.795C23.6642 26.9325 23.4935 27.0321 23.3062 27.084C23.1189 27.1359 22.9214 27.1384 22.7328 27.0912L16.7328 25.5912C16.592 25.5558 16.4594 25.4937 16.3419 25.4084L11.2813 21.7138L9.03688 20.5888C8.81622 20.4791 8.61935 20.327 8.45751 20.1412C8.29567 19.9554 8.17203 19.7396 8.09367 19.506C8.01531 19.2724 7.98376 19.0256 8.00083 18.7798C8.01789 18.534 8.08324 18.294 8.19313 18.0734L10.5313 13.4178C10.7537 12.9732 11.1437 12.6351 11.6154 12.4779C12.0871 12.3207 12.6019 12.3574 13.0466 12.5797L14.9769 13.5463L19.6841 12.17C19.8904 12.11 20.1096 12.11 20.3159 12.17L25.0231 13.5463L26.9572 12.5788C27.4016 12.3577 27.9156 12.3218 28.3864 12.4791C28.8572 12.6364 29.2464 12.974 29.4688 13.4178L31.7984 18.0763C31.9103 18.2959 31.9774 18.5355 31.9959 18.7812C32.0144 19.027 31.9839 19.2739 31.9062 19.5078ZM26.7781 20.5625L24.4344 15.875H21.9556L18.3744 19.3484C19.8519 20.0291 21.2956 19.3663 22.2013 18.4531C22.3968 18.2565 22.6581 18.1391 22.9349 18.1234C23.2118 18.1076 23.4847 18.1947 23.7013 18.3678L26.6319 20.7116L26.7781 20.5625ZM10.3784 18.7466L11.3656 19.2406L13.3597 15.2534L12.3716 14.7594L10.3784 18.7466ZM25.0625 22.3438L23.0281 20.7097C21.1072 22.1431 18.7297 22.2838 16.7469 21.0144C16.5103 20.8636 16.3105 20.6616 16.1624 20.4233C16.0142 20.185 15.9214 19.9166 15.8908 19.6377C15.8602 19.3588 15.8926 19.0765 15.9856 18.8118C16.0786 18.5471 16.2298 18.3066 16.4281 18.1081L16.4394 18.0969L20.1706 14.4688L20 14.4219L15.6556 15.6922L13.3006 20.4022L17.4866 23.4622L22.655 24.7541L25.0625 22.3438ZM29.6178 18.7475L27.6284 14.7594L26.6403 15.2534L28.6344 19.2406L29.6178 18.7475Z" fill="#011627"/>
</svg>
