<svg width="40" height="40" viewBox="0 0 40 40" fill="none" xmlns="http://www.w3.org/2000/svg">
<path d="M0 8C0 3.58172 3.58172 0 8 0H32C36.4183 0 40 3.58172 40 8V32C40 36.4183 36.4183 40 32 40H8C3.58172 40 0 36.4183 0 32V8Z" fill="#CEFF1A"/>
<path d="M27.5 15.125H24.875V13.25C24.875 11.9571 24.3614 10.7171 23.4471 9.80285C22.5329 8.88861 21.2929 8.375 20 8.375C18.7071 8.375 17.4671 8.88861 16.5529 9.80285C15.6386 10.7171 15.125 11.9571 15.125 13.25V15.125H12.5C12.0027 15.125 11.5258 15.3225 11.1742 15.6742C10.8225 16.0258 10.625 16.5027 10.625 17V27.5C10.625 27.9973 10.8225 28.4742 11.1742 28.8258C11.5258 29.1775 12.0027 29.375 12.5 29.375H27.5C27.9973 29.375 28.4742 29.1775 28.8258 28.8258C29.1775 28.4742 29.375 27.9973 29.375 27.5V17C29.375 16.5027 29.1775 16.0258 28.8258 15.6742C28.4742 15.3225 27.9973 15.125 27.5 15.125ZM17.375 13.25C17.375 12.5538 17.6516 11.8861 18.1438 11.3938C18.6361 10.9016 19.3038 10.625 20 10.625C20.6962 10.625 21.3639 10.9016 21.8562 11.3938C22.3484 11.8861 22.625 12.5538 22.625 13.25V15.125H17.375V13.25ZM27.125 27.125H12.875V17.375H27.125V27.125ZM21.5 22.25C21.5 22.5467 21.412 22.8367 21.2472 23.0834C21.0824 23.33 20.8481 23.5223 20.574 23.6358C20.2999 23.7494 19.9983 23.7791 19.7074 23.7212C19.4164 23.6633 19.1491 23.5204 18.9393 23.3107C18.7296 23.1009 18.5867 22.8336 18.5288 22.5426C18.4709 22.2517 18.5006 21.9501 18.6142 21.676C18.7277 21.4019 18.92 21.1676 19.1666 21.0028C19.4133 20.838 19.7033 20.75 20 20.75C20.3978 20.75 20.7794 20.908 21.0607 21.1893C21.342 21.4706 21.5 21.8522 21.5 22.25Z" fill="#011627"/>
</svg>
