<svg width="40" height="40" viewBox="0 0 40 40" fill="none" xmlns="http://www.w3.org/2000/svg">
<path d="M0 8C0 3.58172 3.58172 0 8 0H32C36.4183 0 40 3.58172 40 8V32C40 36.4183 36.4183 40 32 40H8C3.58172 40 0 36.4183 0 32V8Z" fill="#CEFF1A"/>
<path d="M30.125 27.5C30.125 27.7984 30.0065 28.0845 29.7955 28.2955C29.5845 28.5065 29.2984 28.625 29 28.625H11C10.7016 28.625 10.4155 28.5065 10.2045 28.2955C9.99353 28.0845 9.875 27.7984 9.875 27.5V12.5C9.875 12.2016 9.99353 11.9155 10.2045 11.7045C10.4155 11.4935 10.7016 11.375 11 11.375C11.2984 11.375 11.5845 11.4935 11.7955 11.7045C12.0065 11.9155 12.125 12.2016 12.125 12.5V21.7812L16.2041 17.7013C16.3086 17.5964 16.4328 17.5132 16.5695 17.4564C16.7063 17.3996 16.8529 17.3704 17.0009 17.3704C17.149 17.3704 17.2956 17.3996 17.4324 17.4564C17.5691 17.5132 17.6933 17.5964 17.7978 17.7013L20 19.9062L24.0312 15.875H23C22.7016 15.875 22.4155 15.7565 22.2045 15.5455C21.9935 15.3345 21.875 15.0484 21.875 14.75C21.875 14.4516 21.9935 14.1655 22.2045 13.9545C22.4155 13.7435 22.7016 13.625 23 13.625H26.75C27.0484 13.625 27.3345 13.7435 27.5455 13.9545C27.7565 14.1655 27.875 14.4516 27.875 14.75V18.5C27.875 18.7984 27.7565 19.0845 27.5455 19.2955C27.3345 19.5065 27.0484 19.625 26.75 19.625C26.4516 19.625 26.1655 19.5065 25.9545 19.2955C25.7435 19.0845 25.625 18.7984 25.625 18.5V17.4688L20.7959 22.2987C20.6914 22.4036 20.5672 22.4868 20.4305 22.5436C20.2937 22.6004 20.1471 22.6296 19.9991 22.6296C19.851 22.6296 19.7044 22.6004 19.5676 22.5436C19.4309 22.4868 19.3067 22.4036 19.2022 22.2987L17 20.0938L12.125 24.9688V26.375H29C29.2984 26.375 29.5845 26.4935 29.7955 26.7045C30.0065 26.9155 30.125 27.2016 30.125 27.5Z" fill="#011627"/>
</svg>
