<svg width="162" height="48" viewBox="0 0 162 48" fill="none" xmlns="http://www.w3.org/2000/svg">
<g clip-path="url(#clip0_829_616)">
<path d="M10.576 14.9864L9.25 19.9373L16.8397 14.9582L11.8759 33.7457L16.9171 33.75L24.25 6" fill="#A9B0B6"/>
<path d="M2.36058 26.0963L0.25 34.0332H10.6948L14.9687 17.8874L2.36058 26.0963ZM38.6421 19.1086C38.3868 20.0655 37.8949 20.7684 37.1613 21.2173C36.4294 21.6653 35.4022 21.8901 34.0763 21.8901H29.8636L31.3428 16.3288H35.5554C36.8796 16.3288 37.7894 16.552 38.283 17.0068C38.7766 17.4617 38.8957 18.1568 38.6421 19.1181V19.1086ZM43.0037 18.9979C43.5399 16.9897 43.3186 15.4448 42.3382 14.3635C41.3595 13.2907 39.6421 12.75 37.1911 12.75H27.7897L22.1302 34.0427H26.6978L28.9786 25.4604H31.9742C32.6465 25.4604 33.1759 25.572 33.5623 25.7865C33.9495 26.0096 34.1767 26.3959 34.2465 26.9537L35.0618 34.0427H39.9553L39.1621 27.4343C39.0004 25.9582 38.3306 25.0913 37.1537 24.8339C38.654 24.3962 39.911 23.6667 40.9238 22.654C41.9294 21.6487 42.6479 20.3887 43.0037 19.0065V18.9979ZM54.1064 26.4216C53.7234 27.8634 53.1362 28.9534 52.3422 29.7172C51.5473 30.481 50.5975 30.8586 49.4895 30.8586C48.361 30.8586 47.5959 30.4896 47.1917 29.7429C46.7866 28.9963 46.773 27.9149 47.1491 26.4988C47.5253 25.0828 48.1253 23.9756 48.9508 23.1775C49.7763 22.3793 50.7414 21.9803 51.8494 21.9803C52.9558 21.9803 53.7132 22.3665 54.0962 23.1329C54.4876 23.9027 54.4962 25.0038 54.1132 26.437L54.1064 26.4216ZM56.108 18.8863L55.5361 21.0405C55.2893 20.2681 54.8102 19.6502 54.1021 19.1867C53.3924 18.7319 52.5141 18.5001 51.4664 18.5001C50.1814 18.5001 48.9474 18.8348 47.7644 19.5043C46.5815 20.1737 45.5432 21.1177 44.6581 22.3364C43.773 23.5551 43.1263 24.9369 42.7092 26.4903C42.3008 28.0522 42.2156 29.4168 42.4624 30.6012C42.7178 31.7941 43.2539 32.7038 44.0794 33.3389C44.9134 33.9826 45.9772 34.3001 47.2793 34.3001C48.314 34.3054 49.337 34.0798 50.275 33.6393C51.2024 33.2175 52.0272 32.5965 52.692 31.8199L52.0962 34.065H56.5131L60.5462 18.8941H56.1208L56.108 18.8863ZM76.4181 18.8863H63.5733L62.6755 22.2678H70.1493L60.2688 30.8758L59.4245 34.0513H72.6837L73.5816 30.6698H65.5733L75.6054 21.9331L76.4181 18.8863ZM87.7242 26.3959C87.3267 27.8892 86.737 29.0117 85.9583 29.7429C85.1796 30.481 84.2366 30.8501 83.1294 30.8501C80.8146 30.8501 80.0537 29.3653 80.8435 26.3959C81.235 24.9197 81.8273 23.81 82.6188 23.0625C83.4102 22.3124 84.3694 21.9382 85.497 21.9382C86.6033 21.9382 87.3506 22.3098 87.7352 23.0582C88.1199 23.8049 88.1165 24.918 87.7242 26.3941V26.3959ZM90.3096 19.4571C89.2926 18.8185 87.9948 18.4993 86.4119 18.4993C84.8094 18.4993 83.326 18.8168 81.9609 19.4519C80.6015 20.083 79.4068 21.0251 78.4717 22.2034C77.51 23.3963 76.8181 24.7953 76.3934 26.3916C75.9764 27.9819 75.9253 29.3782 76.2487 30.5737C76.5721 31.7667 77.253 32.685 78.2742 33.32C79.304 33.9603 80.6146 34.2787 82.223 34.2787C83.806 34.2787 85.2783 33.9577 86.6314 33.3192C87.9846 32.6772 89.142 31.7658 90.1037 30.5643C91.0653 29.3679 91.7547 27.9724 92.1802 26.3761C92.6057 24.7798 92.6568 23.386 92.3334 22.188C92.01 20.995 91.3377 20.0767 90.3249 19.4373L90.3096 19.4571ZM106.078 22.9389L107.21 18.8108C106.827 18.6134 106.325 18.5104 105.695 18.5104C104.682 18.5104 103.712 18.7628 102.776 19.2743C101.971 19.7085 101.286 20.3213 100.708 21.0886L101.295 18.8657L100.012 18.8709H96.8635L92.804 34.0358H97.283L99.3894 26.1083C99.6957 24.9557 100.247 24.0486 101.043 23.4049C101.834 22.7587 102.822 22.4351 104.013 22.4351C104.745 22.4351 105.426 22.6042 106.073 22.9415L106.078 22.9389ZM118.54 26.4688C118.157 27.8849 117.579 28.9662 116.787 29.7129C115.996 30.463 115.043 30.8372 113.936 30.8372C112.83 30.8372 112.072 30.4596 111.672 29.7043C111.264 28.9448 111.255 27.8506 111.638 26.4122C112.021 24.9746 112.609 23.8718 113.417 23.108C114.226 22.3381 115.179 21.9537 116.285 21.9537C117.374 21.9537 118.106 22.3484 118.498 23.1466C118.889 23.9447 118.898 25.0519 118.522 26.4679L118.54 26.4688ZM121.653 19.482C120.824 18.8125 119.764 18.4778 118.479 18.4778C117.353 18.4778 116.28 18.7353 115.262 19.2554C114.245 19.7746 113.42 20.4826 112.786 21.3786L112.801 21.2757L113.552 18.864H109.178L108.063 23.0608L108.029 23.2067L103.434 40.4949H107.918L110.233 31.7924C110.463 32.5665 110.931 33.1742 111.646 33.6136C112.361 34.0513 113.243 34.2684 114.293 34.2684C115.595 34.2684 116.837 33.9508 118.016 33.3158C119.199 32.679 120.22 31.7624 121.088 30.578C121.956 29.3937 122.601 28.0205 123.012 26.4671C123.429 24.9111 123.514 23.5234 123.276 22.309C123.033 21.0928 122.496 20.1514 121.667 19.4854L121.653 19.482ZM136.53 26.407C136.148 27.8403 135.56 28.9388 134.769 29.694C133.977 30.4544 133.024 30.8329 131.918 30.8329C130.786 30.8329 130.02 30.4639 129.62 29.7172C129.212 28.9705 129.203 27.8892 129.577 26.4731C129.952 25.057 130.549 23.9499 131.375 23.1517C132.2 22.3536 133.166 21.9554 134.274 21.9554C135.381 21.9554 136.13 22.3416 136.521 23.1054C136.913 23.8718 136.915 24.9729 136.534 26.4096L136.53 26.407ZM138.53 18.8675L137.958 21.0216C137.711 20.2449 137.234 19.627 136.528 19.1678C135.813 18.7095 134.936 18.4813 133.89 18.4813C132.605 18.4813 131.364 18.816 130.179 19.4854C128.996 20.1548 127.958 21.0937 127.073 22.309C126.188 23.5242 125.541 24.9094 125.124 26.4628C124.711 28.0222 124.63 29.3894 124.877 30.5789C125.127 31.7632 125.664 32.6781 126.494 33.3166C127.323 33.9517 128.392 34.2727 129.694 34.2727C130.741 34.2727 131.741 34.053 132.69 33.6118C133.615 33.1881 134.438 32.5664 135.101 31.7898L134.505 34.0367H138.922L142.954 18.8718H138.537L138.53 18.8675ZM161.497 18.8726L161.5 18.8683H158.785C158.698 18.8683 158.622 18.8726 158.543 18.8743H157.134L156.411 19.887L156.232 20.1273L156.155 20.2475L150.432 28.2874L149.249 18.8726H144.562L146.936 33.1793L141.694 40.5H146.366L147.634 38.6866C147.67 38.6333 147.702 38.5887 147.745 38.5321L149.225 36.4123L149.268 36.3522L155.9 26.8687L161.491 18.8872L161.5 18.8821H161.497V18.8726Z" fill="#A9B0B6"/>
</g>
<defs>
<clipPath id="clip0_829_616">
<rect width="161.25" height="48" fill="white" transform="translate(0.25)"/>
</clipPath>
</defs>
</svg>
