<svg width="81" height="48" viewBox="0 0 81 48" fill="none" xmlns="http://www.w3.org/2000/svg">
<g clip-path="url(#clip0_829_619)">
<path fill-rule="evenodd" clip-rule="evenodd" d="M80 26.0508C80 20.4113 77.2617 15.9613 72.0279 15.9613C66.7721 15.9613 63.5921 20.4113 63.5921 26.0067C63.5921 32.6375 67.3463 35.986 72.7346 35.986C75.3625 35.986 77.35 35.3912 78.8517 34.5541V30.1482C77.35 30.8972 75.6275 31.3598 73.4413 31.3598C71.2992 31.3598 69.4 30.6108 69.1571 28.0114H79.9558C79.9558 27.725 80 26.5795 80 26.0508ZM69.0909 23.958C69.0909 21.4687 70.6146 20.4333 72.0058 20.4333C73.3529 20.4333 74.7883 21.4687 74.7883 23.958H69.0909Z" fill="#A9B0B6"/>
<path fill-rule="evenodd" clip-rule="evenodd" d="M55.0678 15.9613C52.9036 15.9613 51.5124 16.9747 50.7395 17.6796L50.4524 16.3138H45.5941V42L51.1149 40.8324L51.137 34.5981C51.932 35.1709 53.1024 35.986 55.0457 35.986C58.9986 35.986 62.5982 32.8138 62.5982 25.8305C62.5761 19.442 58.9324 15.9613 55.0678 15.9613ZM53.7428 31.1395C52.4399 31.1395 51.667 30.6769 51.137 30.1042L51.1149 21.9313C51.689 21.2924 52.484 20.8518 53.7428 20.8518C55.7524 20.8518 57.1436 23.0988 57.1436 25.9847C57.1436 28.9366 55.7745 31.1395 53.7428 31.1395Z" fill="#A9B0B6"/>
<path fill-rule="evenodd" clip-rule="evenodd" d="M37.9973 14.6615L43.5402 13.472V9L37.9973 10.1676V14.6615Z" fill="#A9B0B6"/>
<path d="M43.5402 16.3358H37.9973V35.6115H43.5402V16.3358Z" fill="#A9B0B6"/>
<path fill-rule="evenodd" clip-rule="evenodd" d="M32.0566 17.966L31.7033 16.3358H26.9333V35.6115H32.4541V22.5481C33.7571 20.8518 35.9654 21.1602 36.65 21.4025V16.3358C35.9433 16.0714 33.3596 15.5868 32.0566 17.966Z" fill="#A9B0B6"/>
<path fill-rule="evenodd" clip-rule="evenodd" d="M21.0152 11.5554L15.6268 12.7009L15.6048 30.3464C15.6048 33.6068 18.056 36.008 21.3243 36.008C23.1352 36.008 24.4602 35.6775 25.1889 35.281V30.809C24.4822 31.0954 20.9931 32.1088 20.9931 28.8484V21.028H25.1889V16.3357H20.9931L21.0152 11.5554Z" fill="#A9B0B6"/>
<path fill-rule="evenodd" clip-rule="evenodd" d="M6.08708 21.9313C6.08708 21.0721 6.79374 20.7417 7.96416 20.7417C9.64249 20.7417 11.7625 21.2484 13.4408 22.1516V16.9747C11.6079 16.2477 9.79707 15.9613 7.96416 15.9613C3.48125 15.9613 0.5 18.2964 0.5 22.1956C0.5 28.2757 8.89165 27.3064 8.89165 29.9279C8.89165 30.9413 8.00832 31.2717 6.77166 31.2717C4.93874 31.2717 2.59791 30.5227 0.742916 29.5094V34.7524C2.79666 35.6335 4.87249 36.008 6.77166 36.008C11.365 36.008 14.5229 33.739 14.5229 29.7958C14.5008 23.231 6.08708 24.3986 6.08708 21.9313Z" fill="#A9B0B6"/>
</g>
<defs>
<clipPath id="clip0_829_619">
<rect width="80.25" height="48" fill="white" transform="translate(0.5)"/>
</clipPath>
</defs>
</svg>
